<?xml version="1.0" standalone="no"?>
<!DOCTYPE svg PUBLIC "-//W3C//DTD SVG 20010904//EN"
 "http://www.w3.org/TR/2001/REC-SVG-20010904/DTD/svg10.dtd">
<svg version="1.0" xmlns="http://www.w3.org/2000/svg"
 width="1079.000000pt" height="513.000000pt" viewBox="0 0 1079.000000 513.000000"
 preserveAspectRatio="xMidYMid meet">

<g transform="translate(0.000000,513.000000) scale(0.100000,-0.100000)"
fill="#000000" stroke="none">
<path d="M2214 3856 c-17 -8 -84 -62 -149 -121 l-118 -107 -166 6 c-152 6
-169 5 -201 -12 -56 -30 -76 -79 -95 -227 -9 -71 -21 -143 -27 -158 -7 -17
-57 -64 -134 -124 -127 -99 -154 -134 -154 -201 0 -27 44 -110 125 -237 53
-82 54 -92 20 -249 -14 -64 -25 -135 -25 -159 0 -56 32 -105 83 -131 44 -21
44 -13 -6 -136 -100 -240 -160 -391 -180 -448 -19 -58 -20 -66 -6 -90 21 -38
66 -39 238 -2 79 17 151 28 160 25 9 -4 57 -58 106 -121 50 -63 100 -124 112
-136 27 -26 69 -27 94 -1 11 10 55 124 99 253 44 129 83 241 87 248 9 16 167
82 195 82 9 0 42 -11 72 -24 l54 -24 86 -259 c68 -205 91 -263 112 -281 47
-41 63 -29 200 144 l99 124 45 -6 c25 -3 83 -15 130 -25 47 -11 112 -23 146
-26 56 -5 62 -4 78 18 9 13 16 32 16 42 0 18 -47 150 -81 225 -36 79 -52 123
-46 128 3 3 37 -8 75 -25 39 -17 74 -31 79 -31 5 0 37 13 71 30 34 16 65 30
68 30 12 0 173 111 217 150 142 126 244 318 283 534 31 172 30 419 -1 450 -8
7 -49 19 -92 25 -196 29 -384 92 -514 173 l-36 22 -62 -37 c-34 -20 -66 -37
-70 -37 -5 0 -31 18 -59 40 -60 48 -66 64 -87 230 -19 144 -36 186 -91 218
-38 22 -45 23 -199 17 -119 -4 -166 -2 -182 7 -12 7 -57 45 -100 84 -119 109
-140 124 -175 135 -43 12 -56 11 -94 -5z m185 -561 c129 -31 262 -129 323
-238 27 -48 26 -57 -3 -57 -43 0 -49 -22 -49 -193 0 -93 6 -200 14 -251 14
-81 14 -91 -2 -112 -23 -32 -28 -30 -51 14 -25 49 -102 125 -157 154 -49 26
-53 37 -25 62 54 49 78 169 51 253 -18 53 -65 110 -114 135 -56 30 -164 31
-221 3 -92 -46 -154 -150 -141 -241 7 -51 45 -131 75 -158 20 -18 20 -18 -37
-56 -69 -45 -103 -78 -144 -142 -17 -26 -34 -48 -37 -48 -15 1 -92 132 -112
190 -26 75 -31 234 -10 310 48 179 203 332 377 374 78 19 184 19 263 1z m1011
-219 c111 -57 291 -114 415 -131 97 -13 92 -8 100 -93 12 -147 -24 -388 -77
-517 -29 -70 -111 -190 -172 -253 -59 -62 -149 -124 -259 -178 -73 -36 -78
-38 -114 -25 -80 28 -207 108 -282 178 -67 61 -181 208 -181 231 0 4 -14 41
-31 82 -45 112 -60 198 -66 381 -6 190 -10 181 82 193 148 20 375 92 456 145
24 16 46 29 49 28 3 -1 39 -20 80 -41z m-997 -514 c34 -17 75 -42 91 -57 35
-35 86 -114 86 -134 0 -21 -47 -51 -135 -86 -62 -26 -82 -29 -180 -29 -89 0
-122 4 -175 23 -76 27 -150 71 -150 89 0 26 39 88 82 128 108 104 250 129 381
66z m-832 -497 c40 -13 78 -30 86 -37 8 -6 31 -44 50 -82 101 -201 141 -246
222 -246 26 0 41 -4 41 -12 0 -7 -30 -98 -65 -203 -65 -190 -74 -205 -102
-166 -34 49 -197 243 -207 247 -6 2 -87 -11 -179 -29 -93 -18 -170 -30 -173
-26 -4 7 48 147 91 244 7 17 39 95 70 175 32 80 60 148 62 153 7 12 30 8 104
-18z m1390 -62 c30 -27 64 -55 76 -63 13 -9 44 -70 79 -155 58 -144 104 -265
104 -276 0 -4 -19 -3 -42 2 -24 4 -104 20 -178 34 l-135 26 -30 -34 c-32 -36
-46 -52 -138 -169 -50 -65 -77 -91 -77 -75 0 2 -32 97 -71 211 -38 114 -68
210 -66 213 3 2 28 -2 56 -11 37 -11 59 -12 86 -5 35 10 105 63 105 80 0 4 27
59 61 121 55 103 89 148 109 148 4 0 31 -21 61 -47z"/>
<path d="M3288 2935 c-48 -26 -180 -72 -273 -94 -141 -34 -135 -29 -135 -108
0 -108 30 -252 75 -358 54 -128 213 -283 345 -339 34 -14 38 -13 102 19 36 19
79 44 94 57 82 69 99 86 138 137 38 49 73 119 115 226 18 47 41 194 41 262 0
69 -5 75 -75 87 -52 10 -175 45 -197 57 -10 5 -23 9 -29 9 -6 0 -41 14 -79 30
-77 34 -85 35 -122 15z m226 -311 c9 -8 16 -22 16 -31 0 -21 -241 -263 -262
-263 -24 0 -128 126 -128 154 0 58 57 56 101 -3 13 -17 28 -31 33 -31 6 0 52
43 101 95 50 52 98 95 107 95 9 0 24 -7 32 -16z"/>
<path d="M5965 3318 c-22 -11 -55 -37 -73 -57 -41 -46 -97 -160 -111 -229 -16
-75 -13 -275 4 -348 43 -185 155 -303 274 -292 118 12 197 144 208 351 l6 97
-114 -2 c-96 -1 -104 -2 -49 -7 l65 -6 -2 -95 c-3 -167 -35 -284 -82 -310 -29
-15 -83 -12 -109 6 -77 54 -123 301 -102 557 13 158 41 249 90 300 27 26 46
37 68 37 62 0 121 -83 137 -194 l7 -49 40 40 40 40 -18 34 c-32 62 -65 98
-117 124 -61 30 -108 31 -162 3z"/>
<path d="M4662 2858 l3 -463 45 0 45 0 3 318 c1 174 6 317 10 317 20 0 73 -44
100 -82 67 -99 110 -254 121 -442 l6 -111 54 -2 54 -3 -6 103 c-8 133 -37 248
-87 344 -43 85 -65 113 -122 157 -21 15 -36 32 -33 36 3 4 21 11 42 15 131 24
194 134 116 201 -60 51 -145 74 -281 74 l-72 0 2 -462z m218 417 c34 -17 60
-61 60 -100 0 -65 -50 -110 -135 -122 l-45 -6 0 128 0 128 45 -6 c25 -4 59
-14 75 -22z"/>
<path d="M7575 2863 c0 -428 1 -458 18 -461 16 -3 17 20 17 377 0 210 4 381 8
381 5 0 51 -49 103 -109 52 -60 97 -110 101 -110 3 -1 50 49 103 109 54 61
102 110 106 110 5 0 9 -171 9 -380 l0 -380 50 0 50 0 0 463 -1 462 -54 -60
c-30 -33 -92 -104 -137 -157 -46 -53 -86 -97 -89 -97 -4 -1 -47 45 -95 102
-49 56 -97 111 -107 122 -11 11 -30 35 -44 53 -14 17 -28 32 -32 32 -4 0 -7
-206 -6 -457z"/>
<path d="M9294 3225 c-2 -5 -5 -44 -6 -85 l-3 -75 -42 -3 c-24 -2 -43 -7 -43
-12 0 -5 19 -10 43 -12 l42 -3 5 -270 c3 -179 9 -277 17 -290 18 -31 65 -73
96 -84 35 -14 107 -14 141 -1 22 8 26 16 26 52 l0 43 -25 -37 c-14 -21 -34
-42 -45 -48 -29 -15 -73 11 -96 57 -17 34 -19 64 -19 308 l0 270 53 3 c69 4
67 22 -3 22 l-54 0 -3 86 -3 87 -39 1 c-21 1 -40 -3 -42 -9z"/>
<path d="M5375 3060 c-46 -14 -94 -67 -129 -140 -61 -129 -44 -346 34 -446 56
-71 143 -101 217 -73 40 15 101 77 114 117 10 32 9 36 -22 68 -18 19 -36 34
-40 34 -3 0 -9 -22 -11 -49 -3 -27 -16 -71 -29 -97 -40 -80 -92 -89 -136 -24
-33 47 -44 92 -50 203 l-6 97 162 0 c137 0 163 2 168 16 9 24 -25 145 -55 194
-51 83 -140 124 -217 100z m95 -30 c30 -30 49 -83 60 -173 5 -45 10 -83 10
-84 0 -2 -49 -3 -110 -3 l-110 0 0 53 c0 155 85 272 150 207z"/>
<path d="M6560 3059 c-86 -35 -153 -145 -165 -274 -25 -259 133 -456 300 -375
53 26 105 90 105 130 0 16 -11 37 -28 53 -33 32 -42 34 -42 9 0 -37 -28 -123
-51 -157 -19 -28 -31 -35 -56 -35 -66 0 -108 89 -120 255 l-6 85 167 0 166 0
0 38 c0 80 -39 168 -97 223 -56 53 -117 70 -173 48z m98 -32 c34 -36 52 -92
59 -178 l6 -79 -112 0 c-129 0 -120 -11 -96 122 13 75 43 141 68 152 27 11 55
5 75 -17z"/>
<path d="M8437 3060 c-70 -18 -77 -25 -77 -82 l0 -51 29 40 c62 86 121 106
166 57 30 -32 37 -67 33 -158 l-3 -70 -67 3 c-91 3 -142 -14 -183 -62 -93
-108 -55 -302 65 -338 55 -17 101 -5 140 36 19 19 38 35 42 35 4 0 8 -16 8
-35 0 -35 0 -35 45 -35 l45 0 0 284 c0 278 0 284 -23 317 -12 19 -36 40 -52
48 -37 18 -118 23 -168 11z m146 -287 c4 -2 7 -63 7 -134 l0 -129 -41 -45
c-33 -35 -48 -45 -74 -45 -59 0 -95 62 -95 163 1 101 33 165 95 193 26 12 85
10 108 -3z"/>
<path d="M9035 3052 c-16 -11 -39 -29 -49 -41 -26 -29 -34 -27 -38 11 -3 30
-5 31 -48 32 l-45 1 0 -325 0 -325 48 -3 47 -3 0 264 c0 258 1 265 23 298 12
19 39 42 60 53 l38 18 37 -26 37 -26 3 36 c4 44 3 45 -45 50 -27 4 -47 -1 -68
-14z"/>
<path d="M7150 3043 c-14 -10 -33 -28 -43 -40 -23 -28 -37 -21 -37 18 0 28 -2
29 -45 29 l-45 0 0 -331 0 -330 43 3 42 3 5 277 5 278 35 35 c20 19 49 39 66
44 41 12 91 -10 106 -46 7 -18 13 -127 16 -310 l4 -283 44 0 44 0 0 286 c0
320 -1 324 -70 363 -48 27 -135 29 -170 4z"/>
<path d="M4597 2083 c-10 -97 -8 -226 2 -242 6 -9 18 -11 33 -8 24 6 25 9 20
80 -2 40 1 97 7 126 13 62 -1 104 -35 109 -19 3 -22 -3 -27 -65z"/>
<path d="M6536 2115 c-3 -8 -8 -65 -12 -127 -9 -157 10 -197 67 -148 17 14 19
18 7 14 -16 -6 -18 3 -18 95 0 62 5 109 12 121 10 15 9 23 -6 39 -22 25 -42
27 -50 6z"/>
<path d="M6780 2087 c0 -24 -3 -46 -6 -50 -10 -10 -6 -181 5 -209 12 -31 37
-36 67 -13 16 12 16 14 3 15 -22 0 -32 54 -23 131 5 49 11 62 28 69 21 9 21 9
-1 9 -19 1 -23 7 -23 36 0 24 -6 37 -19 45 -29 15 -31 14 -31 -33z"/>
<path d="M8650 2083 c0 -47 -11 -72 -34 -76 -21 -4 -21 -4 1 -6 21 -1 22 -6
25 -108 3 -103 4 -108 25 -111 12 -2 32 2 45 9 l22 12 -23 8 c-21 8 -22 14
-20 91 1 58 6 88 17 101 9 11 11 17 4 17 -7 0 -12 15 -12 35 0 24 -6 37 -19
45 -28 15 -31 13 -31 -17z"/>
<path d="M4699 2092 c10 -7 12 -28 9 -83 -3 -41 -8 -83 -12 -94 -3 -11 1 -4
10 15 10 20 17 62 18 100 1 57 -1 65 -19 68 -15 2 -17 1 -6 -6z"/>
<path d="M9350 2056 c0 -25 -5 -48 -10 -51 -8 -5 -8 -11 0 -20 6 -8 8 -29 4
-53 -9 -57 4 -152 22 -159 8 -3 28 1 46 8 29 12 29 13 9 20 -19 8 -21 16 -21
97 0 50 5 93 11 99 8 8 8 13 0 17 -6 4 -11 22 -11 41 0 31 -13 45 -41 45 -5 0
-9 -20 -9 -44z"/>
<path d="M4760 2055 c-15 -18 -5 -35 21 -35 12 0 19 7 19 19 0 24 -25 34 -40
16z"/>
<path d="M6667 2034 c-16 -16 -6 -35 16 -32 12 2 22 10 22 18 0 16 -26 25 -38
14z"/>
<path d="M4865 2010 c-16 -17 -17 -25 -7 -59 7 -21 12 -58 12 -83 0 -66 39
-95 91 -68 26 14 24 50 -6 94 -14 20 -25 43 -25 51 0 8 -4 15 -9 15 -5 0 -15
16 -23 35 -14 36 -14 36 -33 15z m49 -142 c24 -34 21 -60 -6 -56 -19 2 -24 10
-26 41 -4 42 9 48 32 15z"/>
<path d="M5403 1995 c-3 -9 -3 -19 1 -22 3 -4 6 1 6 10 0 10 6 17 14 17 18 0
30 -30 16 -44 -5 -5 -10 -19 -10 -31 0 -26 -28 -67 -41 -60 -5 4 -9 22 -9 41
0 20 -5 44 -10 55 -14 25 -47 25 -55 0 -4 -14 -13 -19 -33 -16 -15 2 -30 4
-34 4 -5 1 -8 6 -8 12 0 6 9 9 20 6 23 -6 26 5 6 22 -28 24 -69 9 -93 -34 -12
-22 -18 -42 -14 -45 4 -3 10 -13 14 -22 3 -9 15 -21 26 -27 18 -10 20 -8 18
31 -2 38 0 43 18 40 11 -2 35 -3 53 -3 29 0 32 -3 32 -29 0 -43 17 -80 38 -80
62 0 131 137 90 178 -17 17 -37 15 -45 -3z"/>
<path d="M5644 1995 c-9 -23 3 -43 28 -47 22 -3 23 -6 20 -78 -3 -82 5 -105
35 -96 17 5 19 16 18 93 l0 87 -31 8 c-19 5 -34 16 -37 28 -6 24 -25 26 -33 5z"/>
<path d="M5987 1977 c-45 -26 -61 -49 -52 -78 6 -17 13 -20 36 -15 l29 6 0
-81 c0 -93 11 -124 39 -109 11 5 24 24 30 41 13 39 14 59 1 39 -15 -24 -23 12
-13 62 4 24 6 68 3 98 -6 64 -16 69 -73 37z m23 -37 c0 -26 -38 -47 -46 -25
-7 18 12 45 32 45 8 0 14 -9 14 -20z"/>
<path d="M6126 1981 c-4 -5 -9 -29 -12 -54 -7 -50 8 -87 35 -87 25 0 33 11 20
27 -7 8 -9 31 -6 58 6 37 3 46 -13 55 -11 6 -21 6 -24 1z"/>
<path d="M4745 1936 c-9 -54 -5 -76 16 -89 22 -14 57 -1 41 15 -7 7 -12 36
-12 65 0 46 -3 53 -19 53 -16 0 -21 -9 -26 -44z"/>
<path d="M5025 1955 c-25 -24 -33 -68 -16 -94 11 -16 58 -18 74 -2 8 8 5 11
-11 11 -18 0 -22 6 -22 29 0 45 10 61 37 61 13 0 21 4 18 10 -11 18 -56 10
-80 -15z"/>
<path d="M6400 1970 c0 -5 -10 -10 -23 -10 -33 0 -67 -28 -67 -55 0 -28 12
-38 34 -29 12 5 13 10 4 24 -14 22 4 50 33 50 20 0 27 -34 10 -45 -10 -6 4
-62 20 -79 5 -6 19 -5 35 3 20 9 24 15 16 23 -7 7 -12 38 -12 70 0 55 -1 58
-25 58 -14 0 -25 -4 -25 -10z"/>
<path d="M6212 1922 c-19 -85 10 -147 54 -111 11 9 12 15 3 25 -7 9 -9 30 -5
54 13 81 -34 110 -52 32z"/>
<path d="M6926 1958 c-2 -7 -8 -27 -13 -44 -16 -50 21 -103 59 -83 19 10 19
11 2 23 -14 11 -16 22 -11 59 5 35 3 46 -9 51 -22 8 -24 8 -28 -6z"/>
<path d="M7501 1944 c-38 -48 -22 -115 27 -113 15 0 21 3 15 6 -7 2 -13 21
-13 40 0 28 3 34 16 29 9 -3 31 -6 50 -6 31 0 34 -3 34 -29 0 -38 25 -59 51
-43 27 17 39 15 39 -7 0 -32 26 -46 58 -31 16 7 22 15 15 17 -9 3 -13 25 -13
62 0 56 -11 81 -37 81 -7 0 -13 -11 -13 -25 0 -33 -20 -75 -37 -75 -15 0 -17
9 -13 64 1 24 -3 42 -12 47 -21 14 -25 11 -37 -22 -7 -21 -14 -28 -23 -22 -7
4 -21 6 -30 5 -10 -2 -18 2 -18 7 0 6 7 11 16 11 29 0 8 25 -23 28 -24 2 -36
-3 -52 -24z"/>
<path d="M8334 1923 c-3 -27 -10 -55 -14 -63 -11 -20 14 -53 36 -48 11 2 25
22 36 53 21 58 21 58 9 50 -5 -3 -13 5 -17 17 -6 22 -21 38 -36 38 -4 0 -10
-21 -14 -47z"/>
<path d="M8795 1960 c-12 -20 6 -49 33 -52 20 -2 26 -8 25 -23 -9 -70 -7 -135
4 -146 17 -17 68 5 56 24 -4 6 -8 43 -8 81 l0 70 -32 9 c-18 6 -35 18 -38 28
-7 20 -30 25 -40 9z"/>
<path d="M9201 1956 c-11 -13 -5 -72 9 -81 4 -3 5 -25 2 -50 -7 -67 33 -102
92 -79 23 9 20 56 -7 95 -12 19 -33 55 -47 82 -27 51 -32 54 -49 33z m53 -138
c18 -26 21 -54 6 -63 -19 -12 -40 16 -40 51 0 39 12 43 34 12z"/>
<path d="M5518 1942 c-21 -12 -28 -25 -28 -48 0 -49 9 -64 39 -64 38 0 59 16
31 23 -18 5 -21 11 -16 29 3 13 6 31 6 41 0 11 8 17 25 17 14 0 25 5 25 10 0
16 -52 11 -82 -8z"/>
<path d="M6655 1950 c-10 -16 -11 -103 -1 -118 10 -17 51 -15 66 3 11 13 10
14 -4 9 -17 -7 -18 -6 -20 66 -1 33 -5 45 -18 48 -9 2 -19 -2 -23 -8z"/>
<path d="M7024 1948 c-11 -18 -5 -245 8 -273 19 -42 49 -28 63 28 6 21 4 27
-10 27 -14 0 -16 9 -14 63 5 111 1 145 -20 157 -14 7 -22 7 -27 -2z"/>
<path d="M7262 1893 c3 -57 6 -68 22 -71 22 -5 48 18 29 25 -8 3 -13 25 -13
59 0 48 -2 54 -20 54 -19 0 -21 -5 -18 -67z"/>
<path d="M8216 1952 c-3 -5 -21 -13 -40 -16 -21 -4 -41 -16 -51 -32 -16 -24
-16 -28 -1 -42 13 -13 21 -14 45 -5 34 13 41 9 41 -24 0 -13 7 -26 16 -30 20
-7 72 16 57 25 -7 4 -13 34 -15 67 -3 53 -6 60 -25 63 -11 2 -24 -1 -27 -6z
m-6 -42 c0 -25 -39 -48 -50 -29 -15 23 1 41 43 48 4 0 7 -8 7 -19z"/>
<path d="M7359 1923 c-4 -67 4 -230 12 -250 18 -47 54 -22 63 42 3 22 3 34 0
28 -3 -7 -10 -13 -15 -13 -14 0 -11 84 4 99 10 11 10 14 0 18 -7 3 -13 21 -13
42 0 58 -48 90 -51 34z"/>
<path d="M8981 1900 c-16 -72 -3 -94 50 -86 30 5 39 3 39 -8 0 -23 28 -39 56
-32 21 6 23 10 14 21 -7 9 -9 30 -5 59 8 51 -4 76 -36 76 -14 0 -19 -7 -19
-28 0 -28 -24 -72 -40 -72 -5 0 -10 26 -12 57 -2 44 -7 59 -20 61 -12 2 -19
-9 -27 -48z"/>
<path d="M7980 1918 c-24 -26 -27 -80 -5 -98 17 -14 58 -6 89 17 20 15 20 15
1 8 -39 -14 -50 -11 -53 17 -5 38 15 71 39 65 10 -3 17 -1 13 4 -10 17 -63 9
-84 -13z"/>
<path d="M5109 1883 c-13 -16 -12 -17 4 -4 16 13 21 21 13 21 -2 0 -10 -8 -17
-17z"/>
</g>
</svg>
